<?xml version="1.0" encoding="UTF-8"?><svg xmlns="http://www.w3.org/2000/svg" width="1050" height="1050" style="font-family: Arial, sans-serif; width: 1050px; height: 798px;"><g class="path" style="cursor: move;"><path stroke="red" stroke-width="1.5" fill="none" d="M552.00,79.46L990.81,714.66"></path><path stroke="red" stroke-width="1.5" fill="white" class="arrowfront" d="M-1,0L15,5L15,-5Z" transform="translate(990.8086888479918,714.6576629835041) rotate(235.362650102708)"></path></g><g class="path" style="cursor: move;"><path stroke="red" stroke-width="1.5" fill="none" d="M530.56,79.14L60.02,703.12"></path><path stroke="red" stroke-width="1.5" fill="white" class="arrowfront" d="M-1,0L15,5L15,-5Z" transform="translate(60.01510514682532,703.1196081144712) rotate(-52.979822347352865)"></path></g><g class="path" style="cursor: move;"><path stroke="black" stroke-width="1.5" fill="none" d="M988.46,722.24L548.28,427.99"></path><path stroke="black" stroke-width="1.5" fill="white" class="arrowfront" d="M-1,0L15,5L15,-5Z" transform="translate(548.2759631482813,427.99360962106243) rotate(33.76131989070362)"></path></g><g class="path" style="cursor: move;"><path stroke="black" stroke-width="1.5" fill="none" d="M61.83,710.55L507.49,427.61"></path><path stroke="black" stroke-width="1.5" fill="white" class="arrowfront" d="M-1,0L15,5L15,-5Z" transform="translate(507.49274156179166,427.6065563671248) rotate(147.5898585218116)"></path></g><g class="path" style="cursor: move;"><path stroke="green" stroke-width="1.5" fill="none" d="M65.65,719.59L979.35,731.09"></path><path stroke="green" stroke-width="1.5" fill="white" class="arrowfront" d="M-1,0L15,5L15,-5Z" transform="translate(979.3503202295374,731.086139061436) rotate(180.72086762872505)"></path></g><g style="cursor: move;" transform="translate(541.6117211701883,66.63883089770354)"><path fill-opacity="0.7" stroke-width="2" z-index="1" d="M 0 0 m 20, 0 a 20,15 0 1,1 -40,0 a 20,15 0 1,1 40,0" fill="#ff7777" stroke="#ff7777"></path><rect class="textbg" fill="#ffffff" width="31" height="15" x="-15" y="23"></rect><text class="nodelabel" y="35" text-anchor="middle">AGE</text></g><g style="cursor: move;" transform="translate(528.0565566953146,416.38750553932636)"><path fill-opacity="0.7" stroke-width="2" z-index="1" d="M 0 0 m 20, 0 a 20,15 0 1,1 -40,0 a 20,15 0 1,1 40,0" fill="#aaaaaa" stroke="#666666"></path><rect class="textbg" fill="#ffffff" width="31" height="15" x="-15" y="23"></rect><text class="nodelabel" y="35" text-anchor="middle">PRO</text></g><g style="cursor: move;" transform="translate(1004.3478260869564,731.3611691022965)"><path fill-opacity="0.7" stroke-width="2" z-index="1" d="M 0 0 m 20, 0 a 20,15 0 1,1 -40,0 a 20,15 0 1,1 40,0" fill="#00a2e0" stroke="#000000"></path><rect class="textbg" fill="#ffffff" width="30" height="15" x="-14.5" y="23"></rect><text class="nodelabel" y="35" text-anchor="middle">SBP</text><path d="M-2,-6L2,-6L2,6L-2,6Z" fill="#000000"></path></g><g style="cursor: move;" transform="translate(45.65217391304343,719.3697859717265)"><path fill-opacity="0.7" stroke-width="2" z-index="1" d="M 0 0 m 20, 0 a 20,15 0 1,1 -40,0 a 20,15 0 1,1 40,0" fill="#bed403" stroke="#000000"></path><rect class="textbg" fill="#ffffff" width="31" height="15" x="-15" y="23"></rect><text class="nodelabel" y="35" text-anchor="middle">SOD</text><path d="M-4,-6L7,0L-4,6Z" fill="#000000"></path></g></svg>